<svg width="80" height="80" viewBox="0 0 80 80" fill="none" xmlns="http://www.w3.org/2000/svg">
<path fill-rule="evenodd" clip-rule="evenodd" d="M23.1839 38.8038C23.2922 38.787 23.4004 38.7744 23.5079 38.766C23.4028 38.7277 23.3364 38.7139 23.3019 38.709C23.2794 38.7237 23.2405 38.7522 23.1839 38.8038ZM27.5208 43.1311C27.5315 43.4158 27.5322 43.6952 27.5288 43.9502C27.5363 43.9531 27.5438 43.956 27.5513 43.9589C27.6668 44.0038 27.7776 44.053 27.8838 44.1062C27.8668 44.0535 27.8495 44.001 27.8318 43.9487C27.7372 43.6691 27.6334 43.3963 27.5208 43.1311ZM25.4557 51.659C25.4273 51.653 25.399 51.6467 25.3708 51.6399C25.3677 51.6482 25.3645 51.6564 25.3612 51.6646C25.3927 51.6628 25.4242 51.6609 25.4557 51.659ZM18.808 54.3798C20.0516 55.0467 21.479 55.1869 22.7676 55.1869C22.8965 55.1869 23.0557 55.1892 23.2392 55.1919C24.1308 55.2051 25.5958 55.2268 26.9402 55.0282C27.7607 54.907 28.6802 54.6875 29.4878 54.2525C30.3209 53.8037 31.1397 53.0618 31.4721 51.8992C32.2829 49.0637 32.146 45.7538 31.1553 42.8258C30.165 39.899 28.2473 37.1542 25.3053 35.7263C24.2038 35.1917 23.017 34.9669 21.8346 35.5215C20.856 35.9805 20.1661 36.8767 19.6602 37.5508C18.486 39.1152 17.2226 41.0006 16.3442 43.0592C15.4654 45.1186 14.9263 47.4581 15.3439 49.8783C15.3517 49.9233 15.3613 49.9864 15.3731 50.064C15.4357 50.4742 15.5601 51.2905 15.8001 51.9897C15.947 52.418 16.1871 52.9682 16.6048 53.4365C17.0618 53.9489 17.7564 54.3803 18.6645 54.3803C18.712 54.3803 18.7599 54.3802 18.808 54.3798ZM19.9192 50.8152C21.039 50.6959 21.8812 50.3845 22.4913 49.7749C22.5525 49.7138 22.6171 49.6581 22.6845 49.6079C22.1847 48.9797 21.6491 48.2484 21.1814 47.4462C20.4717 47.7288 19.99 48.0793 19.7223 48.4241C19.479 48.7374 19.3431 49.1222 19.4801 49.738C19.5909 50.2365 19.7452 50.5756 19.9192 50.8152ZM19.9397 44.167C19.8371 44.2072 19.7345 44.2493 19.6323 44.2936C19.7129 44.1101 19.7976 43.9273 19.886 43.7454C19.8997 43.8873 19.9177 44.0279 19.9397 44.167ZM24.0209 43.4034C23.8083 43.4064 23.5945 43.415 23.3805 43.429C23.3424 43.0471 23.374 42.6924 23.4748 42.3615C23.4847 42.3514 23.5077 42.3329 23.5548 42.3107C23.6073 42.2858 23.6733 42.2661 23.7447 42.2577C23.7868 42.2528 23.8242 42.2525 23.8555 42.2548C23.8858 42.3228 23.9308 42.4545 23.9659 42.6796C23.9991 42.8928 24.0156 43.135 24.0209 43.4034ZM23.4684 42.3696C23.4684 42.3696 23.4692 42.3675 23.4725 42.3639C23.4703 42.368 23.4684 42.3696 23.4684 42.3696ZM25.0662 46.9542C25.3034 47.2709 25.5509 47.5798 25.7989 47.8784C25.924 48.029 26.0232 48.1174 26.0905 48.1678C26.1202 48.1329 26.1544 48.0857 26.1893 48.0245C26.2539 47.911 26.3044 47.7771 26.3314 47.6409C26.3586 47.504 26.3565 47.3937 26.3441 47.3208C26.337 47.2791 26.328 47.2566 26.3235 47.2471C26.3165 47.2427 26.303 47.2353 26.2797 47.2262C25.9506 47.0983 25.5339 47.0055 25.0662 46.9542Z" fill="black"/>
<path fill-rule="evenodd" clip-rule="evenodd" d="M9.99228 26.792C10.0524 26.772 10.1384 26.7475 10.2529 26.723C10.4609 26.6786 10.7076 26.6463 10.9629 26.6326C11.2191 26.6189 11.4568 26.6253 11.6479 26.6469C11.8288 26.6673 11.9056 26.6934 11.9056 26.6934C11.9056 26.6934 11.9035 26.6922 11.8993 26.6903C12.8117 27.1109 13.6179 28.0308 14.2105 29.3398C14.7981 30.6379 15.0975 32.1569 15.0975 33.4873C15.0975 34.4332 15.8368 35.2 16.7487 35.2C17.6607 35.2 18.4 34.4332 18.4 33.4873C18.4 31.6805 18.0044 29.6613 17.1998 27.884C16.4002 26.1177 15.1169 24.4251 13.2405 23.5602C12.4892 23.2138 11.5135 23.1732 10.7922 23.2119C10.0464 23.2519 9.11766 23.4027 8.4124 23.7685C7.85829 24.0559 7.50046 24.5183 7.2994 24.809C7.11479 25.0758 6.94442 25.3793 6.82346 25.5947C6.8059 25.626 6.78938 25.6554 6.77401 25.6826C6.68705 25.8364 6.62508 25.9406 6.57936 26.012C5.93208 26.3108 5.52048 27.0225 5.6129 27.7894C5.72601 28.7279 6.55128 29.3937 7.45619 29.2764C8.25775 29.1724 8.76693 28.6464 9.01326 28.347C9.27559 28.0281 9.4868 27.6558 9.62276 27.4153C9.64323 27.3791 9.66262 27.3447 9.68107 27.312C9.81233 27.0794 9.89606 26.931 9.98265 26.8058C9.98598 26.801 9.98919 26.7964 9.99228 26.792ZM6.50095 26.1237C6.48488 26.1401 6.48501 26.1431 6.50095 26.1237V26.1237Z" fill="black"/>
<path fill-rule="evenodd" clip-rule="evenodd" d="M19.2 19.309C19.2 18.3651 19.9273 17.6 20.8245 17.6C22.8408 17.6 24.4196 18.3166 25.3867 19.791C26.2711 21.139 26.4328 22.8207 26.395 24.2779C26.3563 25.7709 26.0933 27.3528 25.8656 28.6873L25.8488 28.7861C25.6134 30.1653 25.439 31.187 25.439 31.891C25.439 32.8348 24.7117 33.6 23.8145 33.6C22.9173 33.6 22.19 32.8348 22.19 31.891C22.19 30.8685 22.4136 29.5652 22.619 28.3679C22.6354 28.2724 22.6516 28.1775 22.6677 28.0834C22.9009 26.7167 23.1161 25.3812 23.1471 24.1848C23.1791 22.9527 23.0018 22.1732 22.7127 21.7324C22.5063 21.4179 22.0769 21.018 20.8245 21.018C19.9273 21.018 19.2 20.2528 19.2 19.309Z" fill="black"/>
<path fill-rule="evenodd" clip-rule="evenodd" d="M33.0698 47.612C33.0651 47.6175 33.0346 47.6536 33.0346 47.7828C33.0346 48.6379 32.2658 49.331 31.3173 49.331C30.3689 49.331 29.6 48.6379 29.6 47.7828C29.6 47.0708 29.8143 46.4074 30.2529 45.8403C30.6806 45.2874 31.2544 44.9121 31.8328 44.6575C32.9452 44.1681 34.2987 44.0278 35.4872 44.0037C37.3673 43.9656 39.4811 44.2287 40.6721 44.3769C40.9836 44.4157 41.232 44.4466 41.3966 44.4622C43.4718 44.6592 45.065 45.1795 46.5292 45.7526C46.9621 45.922 47.3686 46.089 47.7665 46.2525C48.7485 46.656 49.6785 47.0381 50.8253 47.3827C51.725 47.653 52.2113 48.5298 51.9114 49.341C51.6115 50.1521 50.6389 50.5905 49.7391 50.3201C48.4067 49.9197 47.2303 49.4364 46.1974 49.012C45.8345 48.863 45.4893 48.7212 45.1613 48.5928C43.8625 48.0844 42.6289 47.6926 41.037 47.5416C40.7401 47.5134 40.3788 47.4688 39.9711 47.4186C38.7545 47.2686 37.1251 47.0676 35.5644 47.0993C34.5251 47.1204 33.7743 47.2487 33.3394 47.4401C33.1443 47.526 33.0831 47.5947 33.0698 47.612Z" fill="black"/>
<path fill-rule="evenodd" clip-rule="evenodd" d="M33.6792 50.4026C34.567 50.4547 35.2468 51.2565 35.1975 52.1936C35.1769 52.584 35.0727 53.2835 34.9676 53.988C34.9596 54.042 34.9515 54.0961 34.9435 54.1501C34.8211 54.9728 34.6803 55.9271 34.5747 56.8545C34.4673 57.7974 34.4058 58.6356 34.4229 59.2401C34.4274 59.3973 34.4367 59.5153 34.4465 59.5995C34.8515 60.1028 34.957 60.8323 34.6595 61.4603C34.2619 62.2997 33.2947 62.6399 32.4994 62.2202C31.736 61.8174 31.4721 61.0457 31.3743 60.6821C31.2567 60.2443 31.2163 59.7679 31.2042 59.3418C31.1796 58.4741 31.2658 57.4302 31.3775 56.4489C31.491 55.4522 31.6407 54.4404 31.7623 53.623C31.8936 52.7404 31.9718 52.2049 31.9823 52.0051C32.0316 51.068 32.7913 50.3506 33.6792 50.4026ZM34.4723 59.7546C34.4718 59.7527 34.4712 59.7506 34.4707 59.7483C34.4822 59.78 34.4809 59.7866 34.4723 59.7546Z" fill="black"/>
<path fill-rule="evenodd" clip-rule="evenodd" d="M36.0139 52.6804C36.1353 51.7543 37.0216 51.0975 37.9933 51.2132C39.449 51.3866 40.0588 52.5826 40.2884 53.1853C40.5593 53.8964 40.6779 54.7321 40.7373 55.4643C40.8294 56.6011 40.7979 57.8817 40.7797 58.6252C40.7745 58.8345 40.7705 59.0012 40.7705 59.1102C40.7705 60.0434 39.9766 60.8 38.9972 60.8C38.0179 60.8 37.224 60.0434 37.224 59.1102C37.224 58.9021 37.23 58.6536 37.2367 58.3765C37.2547 57.6266 37.2777 56.6664 37.2014 55.7245C37.1531 55.129 37.0721 54.681 36.977 54.4002C36.3252 54.0881 35.9182 53.4095 36.0139 52.6804ZM36.8912 54.2012C36.8912 54.2012 36.8985 54.2098 36.9109 54.235C36.897 54.2151 36.8912 54.2012 36.8912 54.2012Z" fill="black"/>
<path fill-rule="evenodd" clip-rule="evenodd" d="M43.7923 52.4305C44.5239 51.8082 45.6477 51.8675 46.3023 52.563C48.2731 54.6569 48.8 57.5949 48.8 59.9102C48.8 60.8434 48.0041 61.6 47.0224 61.6C46.0407 61.6 45.2448 60.8434 45.2448 59.9102C45.2448 57.9292 44.7667 56 43.6529 54.8166C42.9982 54.1211 43.0607 53.0528 43.7923 52.4305Z" fill="black"/>
<path fill-rule="evenodd" clip-rule="evenodd" d="M52.2929 49.4169C52.1173 48.5293 51.2862 47.9092 50.3686 48.0109C49.4008 48.1182 48.7034 48.9881 48.8109 49.9538C48.916 50.897 49.4242 51.5604 49.8934 51.9955C50.3072 52.3792 50.804 52.6857 51.1417 52.8939C51.1597 52.905 51.1773 52.9159 51.1944 52.9264C51.5982 53.176 51.8346 53.3286 52.0039 53.4819C52.0721 53.5436 52.1023 53.5821 52.1138 53.5993C52.2843 54.3467 52.7376 55.2309 53.1402 55.9104C53.5585 56.6163 54.097 57.3927 54.59 57.8847C55.2786 58.5717 56.395 58.5717 57.0836 57.8847C57.7721 57.1976 57.7721 56.0836 57.0836 55.3966C56.9009 55.2143 56.5397 54.7337 56.1756 54.1193C55.7991 53.484 55.5913 52.9936 55.5523 52.8184C55.3556 51.9351 54.851 51.3085 54.3741 50.8766C53.9413 50.4845 53.44 50.1751 53.0946 49.9618C53.0798 49.9527 53.0653 49.9437 53.0511 49.935C52.6383 49.6799 52.4291 49.5433 52.2939 49.4179L52.2929 49.4169ZM52.12 53.6101C52.12 53.6101 52.1184 53.6079 52.1166 53.6037C52.1193 53.608 52.12 53.6101 52.12 53.6101Z" fill="black"/>
<path d="M65.6 58.8C65.6 59.9045 64.7046 60.8 63.6 60.8C62.4954 60.8 61.6 59.9045 61.6 58.8C61.6 57.6954 62.4954 56.8 63.6 56.8C64.7046 56.8 65.6 57.6954 65.6 58.8Z" fill="black"/>
<path d="M71.2 59.2C71.2 60.0836 70.4836 60.8 69.6 60.8C68.7163 60.8 68 60.0836 68 59.2C68 58.3163 68.7163 57.6 69.6 57.6C70.4836 57.6 71.2 58.3163 71.2 59.2Z" fill="black"/>
</svg>
